<svg width="1200" height="630" viewBox="0 0 1200 630" fill="none" xmlns="http://www.w3.org/2000/svg">
  <rect width="1200" height="630" fill="#071014"/>
  <rect x="72" y="72" width="1056" height="486" rx="28" fill="#0C181D" stroke="#1F343B" stroke-width="2"/>
  <circle cx="1000" cy="132" r="84" fill="#00D4D4" opacity="0.08"/>
  <circle cx="1056" cy="504" r="118" fill="#22C55E" opacity="0.08"/>
  <g transform="translate(92 166) scale(0.84)">
    <defs>
      <linearGradient id="logoGradient" x1="0%" y1="0%" x2="100%" y2="100%">
        <stop offset="0%" stop-color="#00D4D4"/>
        <stop offset="100%" stop-color="#22C55E"/>
      </linearGradient>
    </defs>
    <rect x="70" y="50" width="18" height="140" fill="url(#logoGradient)" rx="9"/>
    <path d="M 88 50 Q 120 50 130 70 Q 140 85 135 100" fill="none" stroke="url(#logoGradient)" stroke-width="18" stroke-linecap="round"/>
    <line x1="100" y1="110" x2="160" y2="180" stroke="url(#logoGradient)" stroke-width="18" stroke-linecap="round"/>
    <circle cx="180" cy="60" r="8" fill="#22C55E" opacity="0.9"/>
    <circle cx="210" cy="85" r="6" fill="#00D4D4" opacity="0.9"/>
    <circle cx="220" cy="120" r="7" fill="#22C55E" opacity="0.9"/>
    <line x1="180" y1="60" x2="210" y2="85" stroke="#00D4D4" stroke-width="2" opacity="0.75"/>
    <line x1="210" y1="85" x2="220" y2="120" stroke="#22C55E" stroke-width="2" opacity="0.75"/>
    <rect x="70" y="195" width="100" height="3" fill="url(#logoGradient)"/>
  </g>
  <text x="332" y="224" fill="#EAF7F7" font-family="Inter, Arial, sans-serif" font-size="56" font-weight="800">Roldan Eng Software</text>
  <text x="332" y="304" fill="#8EE8E2" font-family="Inter, Arial, sans-serif" font-size="32" font-weight="700">Desenvolvimento fullstack</text>
  <text x="332" y="365" fill="#B8C9CC" font-family="Inter, Arial, sans-serif" font-size="30" font-weight="500">Landing pages, sistemas e aplicações web modernas</text>
  <text x="332" y="420" fill="#B8C9CC" font-family="Inter, Arial, sans-serif" font-size="26" font-weight="500">São Carlos, São Paulo e todo o Brasil</text>
  <rect x="332" y="470" width="278" height="56" rx="14" fill="#00AFAF"/>
  <text x="362" y="507" fill="#FFFFFF" font-family="Inter, Arial, sans-serif" font-size="23" font-weight="700">Solicitar orçamento</text>
</svg>
